%
M48
M72
T01C0.01969
T02C0.03200
T03C0.03543
T04C0.03937
T05C0.07087
T06C0.08661
T07C0.12598
T08C0.16535
%
T01
X62024Y238795
X65961Y238795
X69898Y238795
X73835Y238795
X77772Y238795
X77772Y245882
X73835Y245882
X69898Y245882
X65961Y245882
X62024Y245882
X95488Y331709
X91551Y335646
X115173Y331709
X119110Y335646
X154543Y335646
X158480Y331709
X186039Y331709
X189976Y335646
X217535Y335646
X221472Y331709
X239189Y245882
X243126Y245882
X247063Y245882
X251000Y245882
X254937Y245882
X254937Y238795
X251000Y238795
X247063Y238795
X243126Y238795
X239189Y238795
X166354Y238795
X162417Y238795
X158480Y238795
X154543Y238795
X150606Y238795
X150606Y245882
X154543Y245882
X158480Y245882
X162417Y245882
X166354Y245882
T02
X163480Y284465
X153480Y284465
X148480Y304150
X158480Y304150
X168480Y304150
X252969Y312772
X252969Y342772
X67929Y334898
X52181Y334898
X52181Y304898
X67929Y304898
T03
X105134Y272260
X113165Y272260
X109150Y282260
X117181Y282260
X121197Y272260
X125213Y282260
X148441Y361866
X152457Y371866
X160488Y371866
X156472Y361866
X164504Y361866
X168520Y371866
X211433Y361866
X215449Y371866
X219465Y361866
X227496Y361866
X223480Y371866
X231512Y371866
X211827Y282260
X203795Y282260
X199780Y272260
X207811Y272260
X195764Y282260
X191748Y272260
X105528Y371866
X101512Y361866
X97496Y371866
X89465Y371866
X93480Y361866
X85449Y361866
T04
X87614Y351394
X78953Y343520
X99425Y323835
X103362Y315961
X126984Y351394
X134858Y343520
X145882Y343520
X150606Y351394
X162417Y323835
X166354Y315961
X182102Y323835
X193913Y351394
X209661Y343520
X213598Y351394
X225409Y323835
X229346Y315961
T05
X238402Y286433
X238402Y266748
X267535Y266748
X267535Y286433
X78559Y286433
X78559Y266748
X49425Y266748
X49425Y286433
T06
X91551Y263205
X138795Y263205
X178165Y263205
X225409Y263205
X245094Y380921
X197850Y380921
X182102Y380921
X134858Y380921
X119110Y380921
X71866Y380921
T07
X24622Y24622
X158480Y113205
X158480Y136827
X292339Y213598
X292339Y24622
X24622Y213598
T08
X63992Y136827
X252969Y136827
M30
