G75*
%MOIN*%
%OFA0B0*%
%FSLAX25Y25*%
%IPPOS*%
%LPD*%
%AMOC8*
5,1,8,0,0,1.08239X$1,22.5*
%
%ADD10C,0.05200*%
%ADD11OC8,0.05200*%
%ADD12OC8,0.05543*%
%ADD13C,0.05906*%
%ADD14C,0.04000*%
%ADD15C,0.01200*%
%ADD16C,0.01000*%
%ADD17C,0.03569*%
%ADD18R,0.10630X0.10630*%
D10*
X0148480Y0301550D02*
X0148480Y0306750D01*
X0158480Y0306750D02*
X0158480Y0301550D01*
X0168480Y0301550D02*
X0168480Y0306750D01*
D11*
X0163480Y0284465D03*
X0153480Y0284465D03*
X0067929Y0304898D03*
X0052181Y0304898D03*
X0052181Y0334898D03*
X0067929Y0334898D03*
X0252969Y0342772D03*
X0252969Y0312772D03*
D12*
X0227496Y0361866D03*
X0219465Y0361866D03*
X0223480Y0371866D03*
X0215449Y0371866D03*
X0211433Y0361866D03*
X0231512Y0371866D03*
X0168520Y0371866D03*
X0164504Y0361866D03*
X0156472Y0361866D03*
X0152457Y0371866D03*
X0160488Y0371866D03*
X0148441Y0361866D03*
X0105528Y0371866D03*
X0101512Y0361866D03*
X0097496Y0371866D03*
X0089465Y0371866D03*
X0093480Y0361866D03*
X0085449Y0361866D03*
X0109150Y0282260D03*
X0117181Y0282260D03*
X0113165Y0272260D03*
X0105134Y0272260D03*
X0121197Y0272260D03*
X0125213Y0282260D03*
X0191748Y0272260D03*
X0195764Y0282260D03*
X0199780Y0272260D03*
X0207811Y0272260D03*
X0203795Y0282260D03*
X0211827Y0282260D03*
D13*
X0229346Y0315961D03*
X0225409Y0323835D03*
X0209661Y0343520D03*
X0213598Y0351394D03*
X0193913Y0351394D03*
X0182102Y0323835D03*
X0166354Y0315961D03*
X0162417Y0323835D03*
X0145882Y0343520D03*
X0150606Y0351394D03*
X0134858Y0343520D03*
X0126984Y0351394D03*
X0099425Y0323835D03*
X0103362Y0315961D03*
X0078953Y0343520D03*
X0087614Y0351394D03*
D14*
X0126984Y0351394D01*
X0150606Y0351394D01*
X0193913Y0351394D01*
X0213598Y0351394D01*
X0209661Y0343520D02*
X0145882Y0343520D01*
X0134858Y0343520D01*
X0078953Y0343520D01*
X0099425Y0323835D02*
X0162417Y0323835D01*
X0182102Y0323835D01*
X0225409Y0323835D01*
X0229346Y0315961D02*
X0186039Y0315961D01*
X0186039Y0277969D01*
X0191748Y0272260D01*
X0186039Y0315961D02*
X0166354Y0315961D01*
X0103362Y0315961D01*
X0099425Y0312024D01*
X0099425Y0278559D01*
X0105134Y0272850D01*
X0105134Y0272260D01*
D15*
X0067929Y0252969D02*
X0063992Y0256906D01*
X0063992Y0293087D01*
X0052181Y0304898D01*
X0067929Y0304898D02*
X0086866Y0304898D01*
X0091551Y0300213D01*
X0091551Y0272654D01*
X0103362Y0260843D01*
X0123047Y0260843D01*
X0126984Y0264780D01*
X0126984Y0268717D01*
X0134858Y0276591D01*
X0134858Y0300213D01*
X0138795Y0304150D01*
X0148480Y0304150D01*
X0142732Y0296276D02*
X0138795Y0292339D01*
X0138795Y0272654D01*
X0130921Y0264780D01*
X0130921Y0260843D01*
X0126984Y0256906D01*
X0103362Y0256906D01*
X0099425Y0252969D01*
X0067929Y0252969D01*
X0052181Y0334898D02*
X0052181Y0384858D01*
X0058087Y0390764D01*
X0101394Y0390764D01*
X0105528Y0386630D01*
X0105528Y0371866D01*
X0142732Y0296276D02*
X0166354Y0296276D01*
X0168480Y0298402D01*
X0168480Y0304150D01*
D16*
X0158480Y0331709D02*
X0186039Y0331709D01*
X0221472Y0331709D01*
X0217535Y0335646D02*
X0189976Y0335646D01*
X0154543Y0335646D01*
X0119110Y0335646D01*
X0091551Y0335646D01*
X0095488Y0331709D02*
X0115173Y0331709D01*
X0158480Y0331709D01*
D17*
X0158480Y0331709D03*
X0154543Y0335646D03*
X0186039Y0331709D03*
X0189976Y0335646D03*
X0217535Y0335646D03*
X0221472Y0331709D03*
X0119110Y0335646D03*
X0115173Y0331709D03*
X0095488Y0331709D03*
X0091551Y0335646D03*
D18*
X0078559Y0286433D03*
X0078559Y0266748D03*
X0049425Y0266748D03*
X0049425Y0286433D03*
X0238402Y0286433D03*
X0238402Y0266748D03*
X0267535Y0266748D03*
X0267535Y0286433D03*
M02*
