G75*
%MOIN*%
%OFA0B0*%
%FSLAX25Y25*%
%IPPOS*%
%LPD*%
%AMOC8*
5,1,8,0,0,1.08239X$1,22.5*
%
%ADD10C,0.13398*%
%ADD11C,0.17335*%
%ADD12C,0.02769*%
%ADD13C,0.06000*%
%ADD14OC8,0.06000*%
%ADD15OC8,0.06343*%
%ADD16C,0.09461*%
%ADD17C,0.06706*%
%ADD18C,0.04369*%
%ADD19R,0.11430X0.11430*%
D10*
X0024622Y0024622D03*
X0158480Y0113205D03*
X0158480Y0136827D03*
X0292339Y0213598D03*
X0292339Y0024622D03*
X0024622Y0213598D03*
D11*
X0063992Y0136827D03*
X0252969Y0136827D03*
D12*
X0254937Y0238795D03*
X0251000Y0238795D03*
X0247063Y0238795D03*
X0243126Y0238795D03*
X0239189Y0238795D03*
X0239189Y0245882D03*
X0243126Y0245882D03*
X0247063Y0245882D03*
X0251000Y0245882D03*
X0254937Y0245882D03*
X0166354Y0245882D03*
X0162417Y0245882D03*
X0158480Y0245882D03*
X0154543Y0245882D03*
X0150606Y0245882D03*
X0150606Y0238795D03*
X0154543Y0238795D03*
X0158480Y0238795D03*
X0162417Y0238795D03*
X0166354Y0238795D03*
X0077772Y0238795D03*
X0073835Y0238795D03*
X0069898Y0238795D03*
X0065961Y0238795D03*
X0062024Y0238795D03*
X0062024Y0245882D03*
X0065961Y0245882D03*
X0069898Y0245882D03*
X0073835Y0245882D03*
X0077772Y0245882D03*
D13*
X0148480Y0301550D02*
X0148480Y0306750D01*
X0158480Y0306750D02*
X0158480Y0301550D01*
X0168480Y0301550D02*
X0168480Y0306750D01*
D14*
X0163480Y0284465D03*
X0153480Y0284465D03*
X0067929Y0304898D03*
X0052181Y0304898D03*
X0052181Y0334898D03*
X0067929Y0334898D03*
X0252969Y0342772D03*
X0252969Y0312772D03*
D15*
X0227496Y0361866D03*
X0219465Y0361866D03*
X0223480Y0371866D03*
X0215449Y0371866D03*
X0211433Y0361866D03*
X0231512Y0371866D03*
X0168520Y0371866D03*
X0164504Y0361866D03*
X0156472Y0361866D03*
X0152457Y0371866D03*
X0160488Y0371866D03*
X0148441Y0361866D03*
X0105528Y0371866D03*
X0101512Y0361866D03*
X0097496Y0371866D03*
X0089465Y0371866D03*
X0093480Y0361866D03*
X0085449Y0361866D03*
X0109150Y0282260D03*
X0117181Y0282260D03*
X0113165Y0272260D03*
X0105134Y0272260D03*
X0121197Y0272260D03*
X0125213Y0282260D03*
X0191748Y0272260D03*
X0195764Y0282260D03*
X0199780Y0272260D03*
X0207811Y0272260D03*
X0203795Y0282260D03*
X0211827Y0282260D03*
D16*
X0225409Y0263205D03*
X0178165Y0263205D03*
X0138795Y0263205D03*
X0091551Y0263205D03*
X0071866Y0380921D03*
X0119110Y0380921D03*
X0134858Y0380921D03*
X0182102Y0380921D03*
X0197850Y0380921D03*
X0245094Y0380921D03*
D17*
X0213598Y0351394D03*
X0209661Y0343520D03*
X0193913Y0351394D03*
X0182102Y0323835D03*
X0166354Y0315961D03*
X0162417Y0323835D03*
X0145882Y0343520D03*
X0150606Y0351394D03*
X0134858Y0343520D03*
X0126984Y0351394D03*
X0099425Y0323835D03*
X0103362Y0315961D03*
X0078953Y0343520D03*
X0087614Y0351394D03*
X0225409Y0323835D03*
X0229346Y0315961D03*
D18*
X0221472Y0331709D03*
X0217535Y0335646D03*
X0189976Y0335646D03*
X0186039Y0331709D03*
X0158480Y0331709D03*
X0154543Y0335646D03*
X0119110Y0335646D03*
X0115173Y0331709D03*
X0095488Y0331709D03*
X0091551Y0335646D03*
D19*
X0078559Y0286433D03*
X0078559Y0266748D03*
X0049425Y0266748D03*
X0049425Y0286433D03*
X0238402Y0286433D03*
X0238402Y0266748D03*
X0267535Y0266748D03*
X0267535Y0286433D03*
M02*
